:SAMPLES-PER-SECOND 24
:FULLY-SPECIFIED
:DEGREES
221
root  -0.784193 39.7129 4.40522 107.899 31.9641 102.923
RightUpLeg  -13.015 -1.44898 -45.7784
RightLeg  28.9356 12.4579 7.15809
RightFoot  -5.4193 0.899624 -17.8483
RightToes  -1.46203e-006 3.27826e-006 1.63871e-007
Spine  9.56911 2.70787 2.09742
Spine1  9.78576 13.4089 -38.2373
HEad  5.52249 44.2303 -32.3782
LeftShoulder1  2.64358 -3.74533 -30.4253
LeftArm  -30.2422 24.2504 -5.75425
LeftForeArm  2.18208 -68.1312 -30.1073
LeftHand  -0.989838 1.50406 29.2322
RightShoulder  1.35222 4.45837 9.6834
RightArm  70.6869 42.973 112.708
RightForeArm  75.5121 78.9843 56.6556
RightHand  -0.848868 5.58748 -9.26767
LeftUpLeg  -25.3796 25.7029 47.8316
LeftLeg  6.51843 -2.52904 2.08436
LeftFoot  34.7025 4.93694 -12.1369
LeftToes  1.24767e-006 1.47042e-008 1.32732e-009
222
root  -1.07244 39.5424 4.15415 109.125 30.4092 105.02
RightUpLeg  -12.2923 -0.0590158 -46.834
RightLeg  29.7673 8.35721 4.89438
RightFoot  -6.82602 0.651246 -17.5523
RightToes  -1.46203e-006 3.27826e-006 1.63871e-007
Spine  9.1459 2.10297 2.15668
Spine1  11.038 13.1522 -37.5949
HEad  7.14988 42.8529 -29.7697
LeftShoulder1  2.28158 -3.47218 -26.5852
LeftArm  -33.3722 20.9383 -8.65523
LeftForeArm  15.5606 -73.3921 -41.9999
LeftHand  -0.885876 1.96744 29.6984
RightShoulder  1.46856 4.20914 11.979
RightArm  63.9649 45.7308 102.977
RightForeArm  90.8533 80.2873 73.7053
RightHand  -0.884374 5.78596 -9.48198
LeftUpLeg  -31.4185 29.0801 43.5473
LeftLeg  17.7826 -4.62 -0.66645
LeftFoot  34.0938 5.23636 -12.9805
LeftToes  1.24767e-006 1.47042e-008 1.32732e-009
223
root  -1.47943 39.7481 2.81928 107.335 29.9485 104.215
RightUpLeg  -11.2098 1.75039 -49.2486
RightLeg  28.3838 5.62971 3.06635
RightFoot  -7.53696 0.486315 -16.0389
RightToes  -1.46203e-006 3.27826e-006 1.63871e-007
Spine  9.00059 2.41399 3.90804
Spine1  12.2604 13.5238 -35.4788
HEad  5.71247 41.7943 -29.5207
LeftShoulder1  2.13023 -3.28908 -25.1873
LeftArm  -36.6514 17.2446 -7.38509
LeftForeArm  48.7648 -78.3034 -71.4254
LeftHand  -0.566124 3.21499 29.8914
RightShoulder  1.52063 4.12099 12.9784
RightArm  60.4887 49.7541 98.3831
RightForeArm  92.863 80.393 76.7203
RightHand  -0.968177 6.05763 -10.1122
LeftUpLeg  -38.6781 28.2991 40.7593
LeftLeg  57.8964 -3.42071 -5.34361
LeftFoot  38.8922 5.01632 -11.2192
LeftToes  1.24767e-006 1.47042e-008 1.32732e-009
224
root  -1.73127 39.9696 1.9896 106.104 31.302 104.286
RightUpLeg  -9.92817 1.89527 -48.9781
RightLeg  26.9999 4.92166 2.497
RightFoot  -7.36773 0.47791 -15.0858
RightToes  -1.46203e-006 3.27826e-006 1.63871e-007
Spine  8.81144 2.28358 5.8123
Spine1  13.806 13.913 -32.6941
HEad  4.04749 42.0547 -30.3796
LeftShoulder1  1.95909 -2.92581 -24.2463
LeftArm  -40.7261 15.1448 -5.1709
LeftForeArm  87.8109 -78.5733 -107.079
LeftHand  -0.349275 3.99826 28.9157
RightShoulder  1.57823 4.28166 13.3403
RightArm  60.9605 51.6097 99.9104
RightForeArm  72.6634 78.7511 55.8204
RightHand  -1.07211 5.73561 -11.4568
LeftUpLeg  -39.3047 28.1985 37.7221
LeftLeg  88.0005 -0.269548 -6.4949
LeftFoot  39.1855 5.28007 -11.6984
LeftToes  1.24767e-006 1.47042e-008 1.32732e-009
225
root  -1.69782 39.9566 2.33508 108.189 33.1606 107.753
RightUpLeg  -8.29719 0.625524 -45.4993
RightLeg  27.2018 4.58377 2.33098
RightFoot  -7.09371 0.529317 -15.4411
RightToes  -1.46203e-006 3.27826e-006 1.63871e-007
Spine  8.57313 2.11209 5.13866
Spine1  14.5322 13.2367 -29.5446
HEad  4.74031 42.097 -28.3503
LeftShoulder1  1.68492 -2.4758 -21.8244
LeftArm  -44.2993 12.1522 -5.11456
LeftForeArm  111.724 -76.4751 -127.51
LeftHand  -0.317937 4.093 28.2493
RightShoulder  1.64587 4.45675 13.7874
RightArm  60.3581 52.4279 101.363
RightForeArm  58.2876 76.0063 41.1047
RightHand  -1.28304 6.57932 -12.71
LeftUpLeg  -39.1207 29.0805 31.8861
LeftLeg  110.513 2.68984 -7.10984
LeftFoot  41.7118 6.39116 -13.316
LeftToes  1.24767e-006 1.47042e-008 1.32732e-009
226
root  -1.82447 39.714 2.47073 113.011 35.7915 114.555
RightUpLeg  -6.84317 -2.08344 -40.4266
RightLeg  29.3182 3.61978 1.95122
RightFoot  -7.91388 0.415332 -15.5463
RightToes  -1.46203e-006 3.27826e-006 1.63871e-007
Spine  8.95583 1.58487 6.50745
Spine1  15.1388 12.5078 -25.6172
HEad  4.81679 40.2928 -24.5819
LeftShoulder1  1.46853 -2.23232 -19.0774
LeftArm  -47.3757 5.8834 -4.37072
LeftForeArm  124.981 -74.6346 -136.894
LeftHand  -0.108822 4.93176 27.2457
RightShoulder  1.62253 4.40572 13.6091
RightArm  59.1909 54.8427 102.929
RightForeArm  52.6646 74.1711 35.2873
RightHand  -1.46343 6.68403 -14.3242
LeftUpLeg  -35.2894 30.998 25.2984
LeftLeg  122.881 5.25204 -7.96164
LeftFoot  42.6762 7.42802 -15.0759
LeftToes  1.24767e-006 1.47042e-008 1.32732e-009
227
root  -1.55235 39.5006 3.0854 120.508 37.0926 123.79
RightUpLeg  -4.19739 -5.93568 -34.2278
RightLeg  29.4549 1.46654 0.646416
RightFoot  -8.53664 0.339421 -16.0775
RightToes  -1.46203e-006 3.27826e-006 1.63871e-007
Spine  8.50493 1.29515 7.2315
Spine1  15.9134 11.7896 -22.5158
HEad  5.40848 37.108 -20.3827
LeftShoulder1  1.27066 -1.98017 -16.4416
LeftArm  -49.2595 -3.21489 -3.3816
LeftForeArm  128.293 -74.3009 -138.476
LeftHand  0.0605617 5.66832 25.6359
RightShoulder  1.51853 4.15001 12.8639
RightArm  58.4261 58.0134 105.084
RightForeArm  47.7598 72.0314 30.3386
RightHand  -1.5053 6.16763 -15.3466
LeftUpLeg  -30.7231 33.5548 19.1191
LeftLeg  124.223 6.79817 -9.65147
LeftFoot  43.2622 8.74978 -17.42
LeftToes  1.24767e-006 1.47042e-008 1.32732e-009
228
root  -1.00396 39.4476 3.87369 131.007 35.2695 135.363
RightUpLeg  -0.857814 -10.5008 -27.8521
RightLeg  26.9174 -1.77336 -1.26669
RightFoot  -8.02931 0.419692 -16.2432
RightToes  -1.46203e-006 3.27826e-006 1.63871e-007
Spine  7.02554 0.98983 6.69245
Spine1  15.2256 9.9454 -19.0294
HEad  8.466 33.0221 -15.0083
LeftShoulder1  1.07923 -1.62251 -14.1287
LeftArm  -48.9446 -14.7305 -4.49144
LeftForeArm  124.783 -75.376 -134.535
LeftHand  0.00208958 5.41124 24.6694
RightShoulder  1.41384 3.91476 11.9977
RightArm  55.7483 60.8295 105.126
RightForeArm  43.6719 69.8457 26.5326
RightHand  -1.52328 5.69489 -16.156
LeftUpLeg  -26.2611 34.7513 13.7274
LeftLeg  116.672 5.43276 -10.3297
LeftFoot  41.6622 7.6858 -15.8783
LeftToes  1.24767e-006 1.47042e-008 1.32732e-009
229
root  -0.43586 39.5385 4.65561 141.46 30.2949 146.347
RightUpLeg  2.07398 -15.3864 -22.0085
RightLeg  22.0916 -6.29557 -2.79905
RightFoot  -6.15263 0.695192 -16.1221
RightToes  -1.46203e-006 3.27826e-006 1.63871e-007
Spine  5.27 0.846765 5.2769
Spine1  14.0472 7.84787 -15.4834
HEad  10.7912 27.3132 -9.84418
LeftShoulder1  0.995643 -1.55121 -12.6356
LeftArm  -47.8293 -27.9607 -7.42586
LeftForeArm  118.71 -77.1044 -126.41
LeftHand  -0.0519703 5.15698 24.117
RightShoulder  1.27049 3.63037 10.6046
RightArm  50.2904 64.5641 102.615
RightForeArm  41.6363 68.7259 24.9719
RightHand  -1.5342 5.32205 -16.8086
LeftUpLeg  -20.3687 33.1874 10.7579
LeftLeg  103.014 1.66162 -6.98125
LeftFoot  33.0714 4.60373 -11.6912
LeftToes  1.24767e-006 1.47042e-008 1.32732e-009
230
root  0.019037 39.6675 5.28063 150.064 23.3262 155.033
RightUpLeg  3.56677 -15.0848 -16.53
RightLeg  17.0985 -16.4136 -3.30864
RightFoot  -3.69106 1.01309 -15.4087
RightToes  -1.46203e-006 3.27826e-006 1.63871e-007
Spine  2.92059 0.993702 3.54934
Spine1  14.1091 6.30639 -12.0005
HEad  10.7396 19.9806 -6.20286
LeftShoulder1  0.952835 -1.70778 -11.0717
LeftArm  -46.0023 -41.5457 -12.7076
LeftForeArm  108.142 -78.8166 -113.015
LeftHand  -0.0596625 5.11625 23.684
RightShoulder  1.06327 2.98417 9.01075
RightArm  42.1982 69.4097 97.3035
RightForeArm  39.915 67.9614 24.0728
RightHand  -1.44807 4.61994 -16.9569
LeftUpLeg  -13.4118 31.3563 9.95789
LeftLeg  87.8191 -0.245019 -1.43089
LeftFoot  22.7492 2.19843 -7.58185
LeftToes  1.24767e-006 1.47042e-008 1.32732e-009
231
root  0.27919 39.7483 5.87592 156.773 14.2741 161.766
RightUpLeg  3.25336 -11.457 -11.9219
RightLeg  14.0134 -28.7352 -3.31715
RightFoot  -0.886825 1.31839 -14.3815
RightToes  -1.46203e-006 3.27826e-006 1.63871e-007
Spine  1.02918 0.508135 1.307
Spine1  14.3503 4.46847 -8.4657
HEad  9.36178 12.2474 -3.05335
LeftShoulder1  0.868553 -1.75969 -9.08732
LeftArm  -40.9589 -53.8784 -21.4369
LeftForeArm  92.2564 -79.7225 -95.3395
LeftHand  -0.117717 4.83888 23.9877
RightShoulder  0.896598 2.21473 8.22294
RightArm  27.3742 73.4325 84.5976
RightForeArm  38.5678 67.778 24.0089
RightHand  -1.18361 2.74025 -17.0189
LeftUpLeg  -6.41967 28.4114 10.1865
LeftLeg  72.0549 0.365515 2.24353
LeftFoot  19.9977 1.79379 -6.83313
LeftToes  1.24767e-006 1.47042e-008 1.32732e-009
232
root  0.341479 39.8176 6.62776 161.537 3.93372 166.736
RightUpLeg  1.47746 -10.0781 -9.61835
RightLeg  13.7647 -37.9088 -3.67267
RightFoot  2.10247 1.44301 -12.0812
RightToes  -1.46203e-006 3.27826e-006 1.63871e-007
Spine  0.332197 -0.716541 -0.578019
Spine1  14.7292 2.39333 -5.55564
HEad  6.63592 4.88906 0.113466
LeftShoulder1  0.83187 -1.87382 -7.93435
LeftArm  -30.2067 -63.4637 -34.2593
LeftForeArm  77.9888 -79.6587 -80.0935
LeftHand  -0.137505 4.75611 24.5719
RightShoulder  0.853207 1.82926 8.5855
RightArm  3.71807 74.454 62.3011
RightForeArm  40.1857 69.6702 26.8595
RightHand  -0.903438 0.733787 -17.1615
LeftUpLeg  -0.326835 24.5664 11.3573
LeftLeg  56.5469 1.37197 2.80567
LeftFoot  24.7555 2.77857 -8.97974
LeftToes  1.24767e-006 1.47042e-008 1.32732e-009
233
root  0.230217 39.9785 7.52148 164.771 -5.48784 169.511
RightUpLeg  -0.922278 -15.1399 -10.7719
RightLeg  15.5122 -37.995 -3.41786
RightFoot  4.6412 1.23792 -8.54664
RightToes  -1.46203e-006 3.27826e-006 1.63871e-007
Spine  0.505085 -1.46289 -2.17302
Spine1  15.0542 0.865166 -3.75186
HEad  3.4691 -1.93045 2.40611
LeftShoulder1  0.908664 -2.13965 -8.64032
LeftArm  -10.0642 -68.5171 -54.4284
LeftForeArm  68.6344 -79.23 -71.857
LeftHand  -0.148141 4.7203 25.1592
RightShoulder  0.901906 1.82303 9.63642
RightArm  -15.9081 70.6096 43.109
RightForeArm  47.2182 73.649 34.9815
RightHand  -0.808906 -0.248195 -18.2122
LeftUpLeg  5.09986 22.4345 13.121
LeftLeg  43.9936 0.819404 1.28338
LeftFoot  25.3044 3.60946 -11.392
LeftToes  1.24767e-006 1.47042e-008 1.32732e-009
